<?xml version="1.0" encoding="UTF-8" standalone="no"?>
<svg width="282px" height="282px" viewBox="0 0 282 282" version="1.1" xmlns="http://www.w3.org/2000/svg" xmlns:xlink="http://www.w3.org/1999/xlink">
  <g transform="translate(-3.000000, -3.000000)">
    <path d="M240.890989,240.011813 L240.767381,45.8880629 L46.6422155,45.7630395 L46.7672388,239.888205 L240.890989,240.011813 L240.890989,240.011813 Z M218.773352,217.902903 L154.065198,217.86005 L154.023761,153.153312 L218.731912,153.193336 L218.773352,217.902903 L218.773352,217.902903 Z M218.686064,67.9620743 L218.726795,132.669519 L154.01935,132.628788 L153.977204,67.919928 L218.686064,67.9620743 L218.686064,67.9620743 Z M68.7584387,67.873363 L133.467298,67.9140945 L133.50803,132.622954 L68.8005841,132.580809 L68.7584387,67.873363 L68.7584387,67.873363 Z M133.51527,153.14748 L133.556708,217.854218 L68.8485558,217.814194 L68.8071165,153.104626 L133.51527,153.14748 L133.51527,153.14748 Z" fill="#FF5479" opacity=".5"></path>
    <path d="M50.3641112,264.065311 L60.3338103,254.095612 L31.1671978,224.928999 L21.1974986,234.898699 L23.1571822,236.858382 L30.9515354,229.064029 L42.7376594,240.850153 L36.5423761,247.045436 L38.4587517,248.961812 L44.654035,242.766528 L56.241452,254.353945 L48.4470987,262.148299 L50.3641112,264.065311 L50.3641112,264.065311 Z M43.7596871,223.716222 C40.3218022,220.278338 42.0547064,217.958229 43.7485502,216.264385 L46.9301526,213.082783 L72.1525597,238.30519 L68.9709574,241.486792 C66.9037427,243.554007 64.9996759,244.956211 61.3089492,241.265485 L43.7596871,223.716222 L43.7596871,223.716222 Z M59.0617926,243.617087 C64.5185909,249.073886 67.9481569,246.478634 70.9211296,243.505662 L76.4383664,237.988425 L47.2717539,208.821812 L41.754517,214.339049 C40.3952439,215.698322 35.686341,220.241636 41.5188993,226.074194 L59.0617926,243.617087 L59.0617926,243.617087 Z M54.1737065,201.917886 L51.8730557,204.218537 L81.0390313,233.384513 L83.3396822,231.083862 L54.1737065,201.917886 Z M87.9423226,226.480588 L90.0979505,224.32496 L66.3798568,200.606866 C64.0960007,198.32301 63.0821669,195.448047 65.7466476,192.783566 C68.2419347,190.288279 71.412939,191.428961 73.5267478,193.54277 L97.2034442,217.219466 L99.4449409,214.977969 L75.7682445,191.301273 C72.3450079,187.878036 67.3113701,187.243431 63.7589413,190.79586 C59.8687614,194.68604 61.0958684,199.634133 64.224229,202.762494 L87.9423226,226.480588 L87.9423226,226.480588 Z M91.2223288,189.114746 L89.2804779,187.172895 L85.7280491,190.725324 L80.8992156,185.896491 C78.071463,183.068738 78.1576179,180.447796 80.2719014,178.333512 C82.6399753,175.965439 85.5139215,176.385442 88.0054009,178.876921 L105.526003,196.397524 C108.017483,198.889003 108.393758,202.057609 106.236858,204.214508 C103.699591,206.751776 100.743905,205.909102 98.4211995,203.586396 L95.7182756,200.883472 L93.603356,202.998392 L96.3062799,205.701316 C99.9377766,209.332812 104.668315,209.752095 108.263997,206.156414 C111.859042,202.561369 111.186915,197.575442 107.7675,194.156027 L90.2468976,176.635425 C86.319888,172.708415 81.7131774,172.839124 78.2453454,176.306956 C74.6935526,179.858749 75.2388329,184.55118 78.7416796,188.054027 L85.5123639,194.824711 L91.2223288,189.114746 L91.2223288,189.114746 Z M124.752035,189.664626 L134.721098,179.695563 L105.554485,150.528951 L95.5854221,160.498014 L97.5451057,162.457697 L105.340095,154.662708 L117.126219,166.448832 L110.930936,172.644115 L112.847311,174.560491 L119.042595,168.365208 L130.630012,179.952625 L122.835022,187.747614 L124.752035,189.664626 L124.752035,189.664626 Z M117.614261,142.386305 L144.82119,169.593234 L146.992084,167.422341 L117.825471,138.255728 L109.389963,146.691236 L111.349647,148.65092 L117.614261,142.386305 L117.614261,142.386305 Z M151.665261,162.746861 C149.074597,158.431186 146.447463,153.818254 143.818475,149.292517 L137.639734,139.575977 L147.270351,145.7553 L160.810619,153.601504 L163.09664,151.315482 L135.473538,135.167012 L128.192712,127.886186 L125.949943,130.128954 L133.230769,137.409781 L149.292735,165.119388 L151.665261,162.746861 L151.665261,162.746861 Z M165.397291,149.012398 L175.36699,139.042699 L173.449977,137.125686 L169.478381,141.097282 L142.228781,113.847682 L140.162202,115.914261 L167.411802,143.163861 L163.480278,147.095385 L165.397291,149.012398 L165.397291,149.012398 Z M153.38001,101.159398 C149.545804,104.993605 150.588791,109.660895 153.864271,112.936375 L158.256204,117.328308 C161.238082,120.310186 165.025451,118.872909 169.695051,117.559672 C172.388755,116.796993 175.208561,116.161689 177.266163,117.967408 L180.807223,121.508468 C183.536259,124.237504 183.573544,126.802516 181.677431,128.698628 C179.444203,130.931856 176.795858,129.970359 174.613266,127.787767 L171.707177,124.881678 L169.559182,127.029673 L172.506032,129.976522 C175.906977,133.377468 180.364627,134.042891 183.69316,130.714358 C187.400789,127.006729 186.400636,122.635425 183.040451,119.27524 L179.41596,115.650749 C175.803893,112.543719 171.553836,114.024617 167.806957,115.081309 C164.651255,115.970987 162.168996,116.943838 160.236698,115.011541 L156.012902,110.787744 C153.702297,108.477139 153.035244,105.450281 155.353068,103.132457 C157.880795,100.60473 161.160441,101.44061 163.259072,103.707163 L166.722432,107.170523 L168.913044,104.979912 L165.449684,101.516552 C161.756992,97.7386269 156.834485,97.7049238 153.38001,101.159398 L153.38001,101.159398 Z M187.765069,92.5554299 L185.823218,90.613579 L182.355386,94.0814111 L177.526552,89.2525776 C174.6988,86.424825 174.784954,83.8038828 176.899238,81.6895993 C179.267948,79.3208894 182.141894,79.7408928 184.633373,82.2323722 L202.153976,99.7529747 C204.645455,102.244454 205.021731,105.413059 202.865467,107.569323 C200.327563,110.107227 197.371242,109.265189 195.048536,106.942483 L192.345612,104.239559 L190.231329,106.353843 L192.934253,109.056766 C196.565749,112.688263 201.296924,113.10691 204.891333,109.512501 C208.487014,105.91682 207.814888,100.930893 204.395473,97.5114779 L186.87487,79.9908755 C182.947861,76.0638658 178.34115,76.1945751 174.872682,79.6630433 C171.320889,83.214836 171.866805,87.9066309 175.369652,91.4094776 L182.140337,98.1801619 L187.765069,92.5554299 L187.765069,92.5554299 Z M216.72464,97.6764313 L198.641671,79.5934627 L192.255469,73.8980282 L199.774185,77.9603608 L224.588324,89.8127469 L226.748405,87.6526666 L197.581792,58.486054 L195.291954,60.7758918 L212.834211,78.3181482 L219.512105,84.3052744 L211.571303,80.0803707 L187.42827,68.6395763 L185.311442,70.756404 L214.478055,99.9230166 L216.72464,97.6764313 L216.72464,97.6764313 Z M204.483745,51.5820623 L202.183094,53.8827131 L231.34907,83.0486888 L233.64972,80.7480379 L204.483745,51.5820623 Z M217.685213,46.2009933 L227.558709,53.9716548 L246.665541,67.7317155 L248.987818,65.4094384 L215.132126,40.9319047 L212.3716,43.6924313 L236.717468,77.6797884 L239.084269,75.3129866 L225.323573,56.2067909 L217.5968,46.2894065 L217.685213,46.2009933 L217.685213,46.2009933 Z M225.189603,30.8726523 L222.888952,33.1733032 L252.054927,62.3392789 L254.355578,60.038628 L225.189603,30.8726523 Z M237.249379,22.7306644 L264.456308,49.9375935 L266.626565,47.7673361 L237.459953,18.6007236 L229.024445,27.0362314 L230.984128,28.9959149 L237.249379,22.7306644 L237.249379,22.7306644 Z" fill="#FFF"></path>
  </g>
</svg>
