<?xml version="1.0" encoding="UTF-8" standalone="no"?>
<svg width="256px" height="256px" viewBox="0 0 256 256" version="1.1" xmlns="http://www.w3.org/2000/svg" xmlns:xlink="http://www.w3.org/1999/xlink" xmlns:sketch="http://www.bohemiancoding.com/sketch/ns">
    <title>diamonds--logo</title>
    <description>Created with Sketch (http://www.bohemiancoding.com/sketch)</description>
    <defs></defs>
    <g id="Page-1" stroke="none" stroke-width="1" fill="none" fill-rule="evenodd" sketch:type="MSPage">
        <g id="logo" sketch:type="MSLayerGroup" transform="translate(151.322637, 168.922635) rotate(135.000000) translate(-151.322637, -168.922635) translate(-0.677363, 57.422635)">
            <g id="Page-1" sketch:type="MSShapeGroup">
                <g>
                    <g id="Content">
                        <g id="Logo">
                            <path d="M64.912236,207 C63.256457,207 61.821811,206.697559 60.725209,206.085541 C55.607429,203.231536 57.634784,191.009899 67.341075,182.201648 C73.258196,176.832657 80.895443,171.88744 85.961564,168.841621 C87.115263,168.174289 88.809106,167.194702 90.867274,166.008136 C91.208943,165.820783 91.401075,165.717293 91.401075,165.717293 L91.394731,165.704803 C91.791683,165.475519 92.198604,165.240882 92.619119,165 C96.150904,177.539244 92.726061,188.576991 84.423602,197.289781 C78.345162,203.668692 70.410655,207 64.912236,207 M187.511557,181 C187.343566,181 187.200203,180.968983 187.087623,180.900564 C186.73757,180.687097 187.549376,179.90256 187.549376,179.90256 C187.549376,179.90256 193.255766,173.657278 195.503844,170.812874 C196.811705,169.158048 198.327134,167.19488 199.979771,165 C199.992964,165.218941 200,165.436057 200,165.652261 C199.983289,173.13547 192.878447,178.187525 189.709501,180.218199 C188.855478,180.673414 188.055106,181 187.511557,181 M224.445072,174 C223.618795,173.359935 223.756203,171.291685 226.47687,164.852216 C227.544984,162.323553 229.981676,158.067888 234.219321,154 C234.709408,155.672836 235.008956,157.277061 234.999796,158.770245 C234.945749,168.733231 228.402406,172.454455 224.445072,174 M129.327219,181 C129.234608,181 129.143761,180.988304 129.053795,180.964911 C126.082291,180.177665 124.274163,167.173258 128.4602,154.374885 C130.567331,147.932962 135.067365,140.234145 137.711642,137.247108 C140.77664,133.785024 144.064787,132.0009 146.090773,132 C146.878411,132 147.474652,132.269913 147.793941,132.816037 C149.244854,135.299236 142.617403,153.89624 140.914234,158.087988 C138.268193,164.600088 132.805882,181 129.327219,181 M155.816414,19 C144.345836,19 131.854756,21.097263 119.587275,25.474316 C97.300813,33.425842 73.173693,45.905632 55.826065,62.200579 C35.199595,81.576105 31.910021,98.439211 33.265919,105.485263 C38.08222,130.521789 72.443869,146.824789 86.203197,158.908211 C85.524353,159.284895 84.887546,159.638316 84.30798,159.958632 C77.408639,163.386368 51.216368,177.151895 44.664052,191.696737 C37.232548,208.194789 45.847332,220.033053 51.55087,221.626579 C54.893214,222.560684 58.25255,223 61.568062,223 C75.78174,223 89.198516,214.921421 97.101364,203.084947 C106.843977,188.490895 105.654435,169.486684 101.182475,160.813105 C101.127917,160.705737 101.065309,160.600158 101.008963,160.493684 C102.789697,159.434316 104.606208,158.357947 106.406619,157.295895 C109.918002,155.225474 113.364095,153.294632 116.355836,151.659947 C114.682429,156.265158 113.456217,161.783895 112.818516,169.756 C112.069909,179.121211 115.891647,191.227 120.893087,195.990579 C123.09508,198.086947 125.74427,198.136158 127.423044,198.136158 C133.242853,198.136158 135.899197,193.273263 138.82207,187.523684 C142.408583,180.470474 145.589935,172.260368 145.589935,172.260368 C145.589935,172.260368 141.596475,194.439105 152.477648,194.439105 C156.441594,194.439105 160.429688,189.276474 162.205951,186.644158 L162.213106,186.688 C162.213106,186.688 162.316856,186.517105 162.518094,186.173526 C162.930409,185.541842 163.16295,185.139211 163.16295,185.139211 L163.184416,185.024684 C164.777328,182.245632 168.311966,175.910895 173.612133,165.463947 C180.460493,151.965947 187.028908,135.057211 187.028908,135.057211 C187.028908,135.057211 187.639778,139.191789 189.641427,146.027579 C190.818447,150.049421 193.320062,154.495368 195.293091,158.759684 C193.704651,160.973263 192.727974,162.244684 192.727974,162.244684 L192.754806,162.310895 C191.48477,164.002842 190.061792,165.829 188.572629,167.610421 C183.167818,174.074 176.729984,181.457368 175.86779,183.587737 C174.852655,186.099263 175.092352,187.945105 177.055542,189.431263 C178.174427,190.279474 179.975732,190.566684 181.978276,190.566684 C182.541743,190.566684 183.120415,190.544316 183.704453,190.504947 C188.561896,190.176579 191.979368,188.966895 193.665297,188.229632 C196.293021,187.296421 199.354525,185.828158 202.227313,183.707632 C207.530163,179.793158 210.727615,174.193 210.419944,166.774737 C210.250009,162.687579 208.952247,158.636211 207.310143,154.810316 C207.791326,154.116 208.274297,153.414526 208.757269,152.705 C217.115363,140.433684 223.598811,126.948211 223.598811,126.948211 C223.598811,126.948211 224.210575,131.082789 226.212225,137.918579 C227.224676,141.379421 229.223643,145.154316 231.019582,148.855842 C223.160559,155.269316 218.286122,162.720684 216.593932,167.610421 C213.464454,176.650842 215.915983,180.747842 220.512264,181.680158 C220.861077,181.750842 221.233144,181.783947 221.622204,181.783947 C223.558563,181.783947 225.906342,180.987632 227.747896,180.204737 C230.500834,179.287632 233.808296,177.761211 236.898421,175.480526 C242.200377,171.566053 247.298412,166.084895 246.990741,158.666632 C246.851216,155.289895 245.938936,151.938211 244.701097,148.717158 C249.739208,146.610053 255.902463,145.210684 263.358116,145.210684 C265.760453,145.210684 268.297843,145.356526 270.975653,145.669684 C294.544673,148.434421 299.16868,163.213684 298.28502,169.399 C297.400466,175.584316 292.457161,178.985211 290.804325,180.011474 C289.151488,181.038632 288.647051,181.394737 288.785682,182.157947 C288.919841,182.897 289.301746,183.125158 289.95823,183.125158 C290.288261,183.125158 290.688054,183.067 291.160293,182.986474 C293.100229,182.658105 303.53689,177.955368 303.983192,166.537632 C304.548448,152.101947 290.832051,136.249 266.526052,136.249 C266.424092,136.249 266.327497,136.249 266.226431,136.249895 C256.753925,136.3 248.550561,138.583368 241.674475,141.987842 C239.15855,136.946 236.61311,132.511684 236.18559,129.214579 C235.68652,125.364526 235.108742,123.067737 235.710668,118.482211 C236.313489,113.896684 238.955523,107.402684 238.916169,106.916842 C238.877711,106.430105 238.324082,104.093947 232.861135,104.053684 L232.576718,104.053684 C227.235409,104.053684 222.715152,105.135421 222.175833,106.558053 C221.624888,108.006632 220.573083,111.267053 219.918388,114.667053 C218.962282,119.641789 209.011276,137.382632 203.361402,146.665526 C201.513588,143.043632 199.942141,139.848526 199.614793,137.323579 C199.115723,133.473526 198.537051,131.177632 199.139871,126.590316 C199.743586,122.005684 202.384726,115.510789 202.346267,115.024053 C202.307808,114.538211 201.754179,112.202053 196.290338,112.162684 C196.195533,112.161789 196.099833,112.161789 196.005027,112.161789 C190.664612,112.161789 186.145249,113.243526 185.604142,114.667053 C185.054091,116.115632 184.467369,119.500421 183.348485,122.775158 C182.2296,126.050789 169.001542,155.646895 165.537561,163.318368 C163.772926,167.226579 162.23636,170.366211 161.151463,172.510895 L161.144308,172.500158 C161.144308,172.500158 161.078123,172.641526 160.962746,172.882211 C160.034367,174.708368 159.482527,175.718526 159.482527,175.718526 L159.498626,175.756105 C158.761647,177.096421 157.972793,178.341895 157.582838,178.341895 C157.309154,178.341895 156.762681,174.773684 157.701793,169.875 C159.669455,159.607895 164.398106,143.597474 164.350703,143.046316 C164.326555,142.763579 165.229891,139.973789 161.263262,138.515368 C160.374236,138.188789 159.616686,138.062632 158.974512,138.062632 C156.828866,138.062632 155.95415,139.462895 155.68315,139.469158 C155.342386,139.476316 155.089273,140.303947 155.089273,140.303947 C155.089273,140.303947 159.384144,122.298263 146.896642,122.298263 C139.088599,122.298263 128.270033,130.876105 122.940351,138.650474 C119.578331,140.491842 112.381158,144.437632 104.745733,148.650947 C101.812127,150.268632 98.820385,151.922105 95.982479,153.492368 C95.789291,153.278526 95.596102,153.062895 95.398441,152.850842 C80.256384,136.626579 52.263701,125.150684 53.450559,103.338789 C53.883445,95.408737 56.62744,74.530053 107.239298,49.202737 C126.950805,39.338263 144.793926,35.455105 158.7053,35.455105 C174.052174,35.455105 184.61405,40.181105 187.622785,46.818263 C195.81631,64.894632 169.885201,98.492 126.829167,103.338789 C124.803369,103.566947 122.894737,103.668947 121.102375,103.668947 C108.39038,103.668947 101.522344,98.507211 99.639649,96.422474 C98.013644,94.622263 97.381309,94.058579 96.841096,94.058579 C96.630019,94.058579 96.432359,94.144474 96.195345,94.276 C94.820664,95.041895 95.692696,97.251895 96.195345,98.568947 C97.482375,101.928684 102.756605,107.887632 111.750611,110.851 C115.057179,111.940789 120.345719,112.824789 127.081386,112.824789 C136.464453,112.824789 148.655017,111.109579 162.213106,105.843158 C188.300734,95.709368 208.670513,67.519789 202.68703,43.956895 C198.595186,27.841789 179.362179,19.000895 155.816414,19" id="Fill-2" fill="#D32A75"></path>
                            <path d="M139.5,0 L78,61.499552 L139.5,123 L201,61.499552 L139.5,0 L139.5,0 Z M139.500448,14 L160,34.500448 L139.500448,55 L119,34.500448 L139.500448,14 L139.500448,14 Z M92,61.499552 L112.5,41 L133,61.499552 L112.5,82 L92,61.499552 L92,61.499552 Z M139.500448,109 L119,88.5 L139.500448,68 L160,88.5 L139.500448,109 L139.500448,109 Z M146,61.499552 L166.499552,41 L187,61.499552 L166.499552,82 L146,61.499552 L146,61.499552 Z" id="Fill-3" fill="#FFFFFF"></path>
                            <path d="M2.8300127,175.448194 L2.8300127,140 L2.84217094e-14,140 L2.84217094e-14,178 L11,178 L11,175.448194 L2.8300127,175.448194 L2.8300127,175.448194 Z M16,178 L19,178 L19,140 L16,140 L16,178 L16,178 Z M30.885458,172.904306 L29.514634,161.411944 L26.028693,140 L23,140 L29.114427,178 L32.71445,178 L39,140 L35.914266,140 L32.429245,161.411944 L31.00046,172.904306 L30.885458,172.904306 L30.885458,172.904306 Z M43,178 L46,178 L46,140 L43,140 L43,178 L43,178 Z M65.070837,140 L65.070837,163.56 L65.520699,171.430926 L63.267709,163.885463 L54.816927,140 L52,140 L52,178 L54.986201,178 L54.986201,155.146343 L54.535419,146.894537 L56.958602,154.82 L65.24011,178 L68,178 L68,140 L65.070837,140 L65.070837,140 Z M79.507831,165.633636 L79.507831,168.163318 L85.132831,168.163318 L85.132831,171.0245 C85.132831,174.709114 83.368072,176.359523 80.611145,176.359523 C77.52259,176.359523 75.922289,174.214523 75.922289,170.968659 L75.922289,148.14125 C75.922289,144.895386 77.743072,142.585523 80.55512,142.585523 C83.864157,142.585523 85.243072,145.06025 85.243072,148.086295 L85.243072,151.606932 L88,151.606932 L88,148.086295 C88,143.354886 85.187952,140 80.500904,140 C75.812048,140 73,143.6855 73,148.14125 L73,170.968659 C73,176.08475 76.088554,179 80.611145,179 C85.243072,179 87.945783,175.589273 87.945783,171.0245 L87.945783,165.633636 L79.507831,165.633636 L79.507831,165.633636 Z M108.636803,179 C113.637163,179 116,175.280818 116,171.013864 L116,168.224477 C116,164.340432 112.593539,162.808795 108.692824,160.622136 C106.439319,159.3635 104.186717,157.940886 104.022267,155.4245 L104.022267,147.877114 C104.022267,144.321023 105.67038,142.625409 108.142549,142.625409 C111.054758,142.625409 112.154403,144.976932 112.154403,147.821273 L112.154403,152.745023 L114.955472,152.745023 L114.955472,147.768091 C114.955472,143.337159 112.483303,140 108.142549,140 C103.308446,140 101.110059,143.50025 101.110059,147.877114 L101.110059,155.533523 C101.439862,159.910386 105.176127,161.715023 108.307903,163.466477 C110.945426,164.943159 113.198027,165.927023 113.198027,168.443409 L113.198027,171.013864 C113.198027,174.023068 111.659246,176.429545 108.636803,176.429545 C105.34148,176.429545 103.747582,173.749182 103.856914,170.904841 L103.856914,167.184773 L101.000727,167.184773 L101.000727,170.904841 C100.944705,175.77275 104.132503,179 108.636803,179 L108.636803,179 L108.636803,179 Z M132,140 L119,140 L119,142.497269 L124.178707,142.497269 L124.178707,178 L126.873227,178 L126.873227,142.497269 L132,142.497269 L132,140 L132,140 Z M149.906037,140 C148.781207,144.499306 147.486971,149.21588 146.250114,153.877037 L143.943986,164.231157 L141.693417,153.931574 L137.981025,140 L135,140 L142.481253,168.514074 L142.481253,178 L145.405809,178 L145.405809,168.514074 L153,140 L149.906037,140 L149.906037,140 Z M158.830882,175.448194 L158.830882,140 L156,140 L156,178 L167,178 L167,175.448194 L158.830882,175.448194 L158.830882,175.448194 Z M185,142.497269 L185,140 L172,140 L172,178 L185,178 L185,175.448194 L174.834743,175.448194 L174.834743,167.848194 L182.913976,167.848194 L182.913976,165.350926 L174.834743,165.350926 L174.834743,142.497269 L185,142.497269 L185,142.497269 Z M205.507831,165.633636 L205.507831,168.163318 L211.132831,168.163318 L211.132831,171.0245 C211.132831,174.709114 209.368072,176.359523 206.611145,176.359523 C203.52259,176.359523 201.922289,174.214523 201.922289,170.968659 L201.922289,148.14125 C201.922289,144.895386 203.743072,142.585523 206.55512,142.585523 C209.864157,142.585523 211.242169,145.06025 211.242169,148.086295 L211.242169,151.606932 L214,151.606932 L214,148.086295 C214,143.354886 211.187952,140 206.5,140 C201.812048,140 199,143.6855 199,148.14125 L199,170.968659 C199,176.08475 202.088554,179 206.611145,179 C211.242169,179 213.945783,175.589273 213.945783,171.0245 L213.945783,165.633636 L205.507831,165.633636 L205.507831,165.633636 Z M233,140 L230.188121,140 L230.188121,170.902182 C230.188121,173.877705 228.97464,176.410932 225.500452,176.410932 C222.246732,176.410932 220.923017,173.602045 220.923017,170.848114 L220.923017,140 L218,140 L218,170.848114 C218,175.309182 220.8679,179 225.500452,179 C230.573038,179 233,174.978568 233,170.902182 L233,140 L233,140 Z M239,178 L242,178 L242,140 L239,140 L239,178 L239,178 Z M263,147.653817 C263,140.542743 259.070181,140 255.194578,140 L248,140 L248,177.999915 L255.194578,177.999915 C256.966566,177.999915 263,178.108991 263,170.509712 L263,147.653817 L263,147.653817 Z M260,171.137766 C260,175.61734 257.359381,176 255.149669,176 L251,176 L251,143 L255.149669,143 C257.844589,143 260,143.327367 260,148.136064 L260,171.137766 L260,171.137766 Z M282,142.497269 L282,140 L269,140 L269,178 L282,178 L282,175.448194 L271.836285,175.448194 L271.836285,167.848194 L279.914115,167.848194 L279.914115,165.350926 L271.836285,165.350926 L271.836285,142.497269 L282,142.497269 L282,142.497269 Z" id="Fill-4" fill="#FFFFFF"></path>
                        </g>
                    </g>
                </g>
            </g>
        </g>
    </g>
</svg>